<svg width="64" height="64" viewBox="0 0 64 64" fill="none" xmlns="http://www.w3.org/2000/svg">
<path d="M63.4726 35.1762C55.7908 27.3523 58.6171 11.9609 59.9831 6.33936C60.271 5.16318 59.7078 4.78983 58.5454 5.26139C48.7213 9.2541 33.7477 1.0359 32.0803 0.0906896V0C32.0803 0 32.048 0.0186673 31.9998 0.0456931C31.9533 0.0186673 31.9203 0 31.9203 0V0.0906896C30.2531 1.03687 15.2789 9.2541 5.45516 5.26139C4.29359 4.78997 3.73048 5.16429 4.01691 6.33936C5.38417 11.9597 8.20888 27.3512 0.527987 35.1762C-0.336243 36.0564 -0.140151 36.6438 1.12092 36.6438H5.51756C5.51756 36.6438 6.47213 54.9695 31.9204 63.9402V64C31.9478 63.9894 31.9729 63.9798 32 63.9705C32.0273 63.9798 32.0524 63.9894 32.0804 64V63.9402C57.5287 54.9693 58.483 36.6438 58.483 36.6438H62.8791C64.1404 36.6438 64.3358 36.0564 63.4726 35.1762ZM32.2698 48.2284C32.2057 48.2284 32.1439 48.2194 32.0803 48.2194C32.026 48.2194 31.9748 48.2133 31.9214 48.2122C21.3808 48.0319 12.8605 39.7785 12.8605 29.6414C12.8605 19.5044 21.3806 11.2511 31.9214 11.0707C31.9748 11.0696 32.026 11.0632 32.0803 11.0632C32.1439 11.062 32.2057 11.0542 32.2698 11.0542C42.9728 11.0542 51.6804 19.3931 51.6804 29.6427C51.6804 39.8913 42.9728 48.2284 32.2698 48.2284Z" fill="#0D0C0C"/>
<path d="M32.0826 24.662C32.0814 24.662 32.0803 24.662 32.0791 24.662C32.024 24.662 31.9739 24.6762 31.9203 24.6773C29.1257 24.7616 26.8827 26.9447 26.8827 29.6414C26.8827 32.3385 29.1255 34.5218 31.9203 34.605C31.9739 34.6072 32.0253 34.6206 32.0791 34.6206C32.0803 34.6206 32.0814 34.6206 32.0826 34.6206C34.9542 34.6206 37.2814 32.3919 37.2814 29.6413C37.2814 26.8907 34.9543 24.662 32.0826 24.662Z" fill="#0D0C0C"/>
<path d="M32.2698 12.6936C32.2057 12.6936 32.1439 12.7025 32.0803 12.7025C32.026 12.7025 31.9748 12.709 31.9214 12.7101C22.3255 12.8906 14.5736 20.408 14.5736 29.6403C14.5736 38.8724 22.3255 46.3901 31.9214 46.5703C31.9748 46.5716 32.026 46.5783 32.0803 46.5783C32.1439 46.5794 32.2057 46.5877 32.2698 46.5877C42.0279 46.5877 49.9673 38.9835 49.9673 29.6392C49.9673 20.2944 42.0279 12.6936 32.2698 12.6936ZM43.9097 37.1379C42.1306 35.7925 39.5725 35.6741 37.6442 37.0078C35.7151 38.3425 35.0301 40.7096 35.8084 42.7495C34.6209 43.06 33.3716 43.228 32.0828 43.228C32.0816 43.228 32.0804 43.228 32.0793 43.228C32.0253 43.228 31.9729 43.2236 31.9204 43.2236C30.6162 43.2085 29.3542 43.026 28.1566 42.6949C28.9663 40.6667 28.3172 38.2919 26.4089 36.9291C24.5021 35.5658 21.9432 35.6495 20.1442 36.9692C18.8159 34.9914 18.0074 32.6656 17.9071 30.1673C20.1728 30.2657 22.3236 28.9317 23.0743 26.7686C23.825 24.6076 22.9405 22.3065 21.0669 21.0846C22.6395 19.2311 24.7098 17.7819 27.0818 16.9239C27.6847 18.9652 29.6114 20.4658 31.9181 20.5347C31.9718 20.5359 32.023 20.5481 32.0767 20.5481C32.0781 20.5481 32.0793 20.5481 32.0804 20.5481C34.4602 20.5481 36.4631 19.0149 37.0799 16.9239C39.5314 17.8107 41.6567 19.3283 43.2471 21.27C41.3536 22.4597 40.4267 24.7452 41.1385 26.9185C41.8509 29.0936 43.9786 30.4638 46.2458 30.4024C46.1039 32.8833 45.2621 35.1868 43.9097 37.1379Z" fill="#0D0C0C"/>
</svg>
