<svg width="180" height="180" viewBox="0 0 180 180" fill="none" xmlns="http://www.w3.org/2000/svg">
<g clip-path="url(#clip0)">
<path d="M148.352 176.473H31.648C16.117 176.473 3.52652 163.883 3.52652 148.352V31.648C3.52652 16.117 16.1167 3.52652 31.648 3.52652H148.352C163.883 3.52652 176.473 16.1167 176.473 31.648V148.352C176.473 163.883 163.883 176.473 148.352 176.473Z" fill="#EDF2FA"/>
<path d="M145.54 159.6H34.4602C26.6948 159.6 20.3994 153.305 20.3994 145.539V34.4602C20.3994 26.6948 26.6948 20.3994 34.4602 20.3994H145.54C153.305 20.3994 159.601 26.6948 159.601 34.4602V145.539C159.6 153.305 153.305 159.6 145.54 159.6Z" fill="#898998"/>
<path d="M138.772 23.773H41.2295V157.87H138.772V23.773Z" fill="#A0E557"/>
<path d="M65.0422 22.5081V51.2156H114.958V22.5081" fill="#D8FB93"/>
<path d="M65.0422 157.87V128.784H114.958V157.87" fill="#D8FB93"/>
<path d="M89.9989 111.09C101.647 111.09 111.09 101.647 111.09 89.999C111.09 78.3507 101.647 68.908 89.9989 68.908C78.3507 68.908 68.908 78.3507 68.908 89.999C68.908 101.647 78.3507 111.09 89.9989 111.09Z" fill="#D8FB93"/>
<path d="M114.958 125.269H65.0422C63.1012 125.269 61.5269 126.843 61.5269 128.784V147.297C61.5269 149.238 63.1009 150.813 65.0422 150.813C66.9832 150.813 68.5575 149.239 68.5575 147.297V132.299H111.442V147.297C111.442 149.238 113.016 150.813 114.958 150.813C116.899 150.813 118.473 149.239 118.473 147.297V128.784C118.473 126.843 116.899 125.269 114.958 125.269Z" fill="black"/>
<path d="M65.0422 54.7309H114.958C116.899 54.7309 118.473 53.157 118.473 51.2156V32.7023C118.473 30.7614 116.899 29.1871 114.958 29.1871C113.017 29.1871 111.442 30.761 111.442 32.7023V47.7007H68.5575V32.7027C68.5575 30.7617 66.9836 29.1874 65.0422 29.1874C63.1012 29.1874 61.5269 30.7614 61.5269 32.7027V51.216C61.5269 53.1573 63.1012 54.7309 65.0422 54.7309Z" fill="black"/>
<path d="M179.988 125.557V54.4435C180.003 54.2554 180.005 54.0655 179.988 53.8746V31.6482C179.988 14.2036 165.796 0.0117493 148.352 0.0117493H31.648C14.2035 0.0117493 0.0115769 14.204 0.0115769 31.6482V53.8746C-0.00494657 54.0655 -0.0028372 54.2554 0.0115769 54.4435V125.557C-0.0028372 125.745 -0.00494657 125.935 0.0115769 126.126V148.352C0.0115769 165.797 14.2038 179.989 31.648 179.989H148.352C165.796 179.989 179.988 165.797 179.988 148.352V126.126C180.005 125.935 180.003 125.745 179.988 125.557ZM44.7444 156.085L44.7686 93.5151H65.6486C67.3601 105.423 77.626 114.606 89.9996 114.606C102.373 114.606 112.64 105.423 114.351 93.5151H135.283L135.29 109.738C135.248 110.052 135.249 110.365 135.29 110.672L135.298 131.431C135.299 133.372 136.872 134.945 138.813 134.945C138.814 134.945 138.814 134.945 138.815 134.945C140.756 134.945 142.329 133.37 142.329 131.429L142.322 115.478L156.085 121.179V145.54C156.085 151.355 151.354 156.085 145.539 156.085H44.7444V156.085ZM23.9147 121.178L37.7297 115.456L37.7138 156.085H34.4601C28.6453 156.085 23.9147 151.354 23.9147 145.54C23.9147 145.54 23.9147 121.178 23.9147 121.178ZM7.04177 59.4427L16.8841 63.5194V116.481L7.04177 120.558V59.4427ZM23.9147 66.4314L37.7465 72.1608L37.7399 89.5857C37.7237 89.7217 37.7135 89.8595 37.7135 90.0001C37.7135 90.1397 37.724 90.2772 37.7399 90.4125L37.7328 107.845L23.915 113.569V66.4314H23.9147ZM135.256 23.9148L135.274 69.4358C135.25 69.6717 135.25 69.9115 135.275 70.152L135.281 86.4852H114.351C112.64 74.5771 102.374 65.3943 90 65.3943C77.626 65.3943 67.3601 74.5775 65.649 86.4852H44.7715L44.7862 48.3681C44.7869 46.4271 43.2137 44.8521 41.2724 44.8514C41.272 44.8514 41.2713 44.8514 41.271 44.8514C39.3303 44.8514 37.7564 46.4243 37.7557 48.3653L37.7494 64.5523L23.9147 58.8218V34.4603C23.9147 28.6455 28.6453 23.9148 34.4601 23.9148H135.256ZM156.085 58.8215L142.303 64.5301L142.287 23.9148H145.54C151.355 23.9148 156.085 28.6455 156.085 34.4603V58.8215ZM72.7776 86.4849C74.4106 78.4721 81.5118 72.4241 90 72.4241C98.4881 72.4241 105.589 78.4721 107.222 86.4849H72.7776ZM107.222 93.5151C105.589 101.528 98.4881 107.576 90 107.576C81.5118 107.576 74.411 101.528 72.7776 93.5151H107.222ZM142.32 107.867L142.313 90.6519C142.353 90.4403 142.376 90.223 142.376 89.9998C142.376 89.7755 142.353 89.5568 142.313 89.3445L142.306 72.1387L156.085 66.431V113.568L142.32 107.867ZM163.115 63.5194L172.958 59.4423V120.558L163.115 116.481V63.5194ZM172.958 31.6482V51.8324L163.116 55.9091V34.4603C163.116 24.7691 155.231 16.8843 145.54 16.8843H93.5152V7.04194H148.352C161.92 7.04194 172.958 18.0803 172.958 31.6482ZM31.648 7.04194H86.4847V16.8843H34.4601C24.769 16.8843 16.8841 24.7688 16.8841 34.4603V55.9095L7.04177 51.8328V31.6485C7.04177 18.0803 18.0801 7.04194 31.648 7.04194ZM7.04177 148.352V128.168L16.8841 124.091V145.54C16.8841 155.231 24.7686 163.116 34.4601 163.116H86.4847V172.958H31.648C18.0801 172.958 7.04177 161.92 7.04177 148.352ZM148.352 172.958H93.5152V163.116H145.54C155.231 163.116 163.116 155.231 163.116 145.54V124.09L172.958 128.167V148.351C172.958 161.92 161.92 172.958 148.352 172.958Z" fill="#070303"/>
<path d="M41.1859 38.6782H41.271C43.212 38.6782 44.7863 37.1042 44.7863 35.1629C44.7863 33.2216 43.2123 31.6476 41.271 31.6476H41.1859C39.2449 31.6476 37.6706 33.2216 37.6706 35.1629C37.6706 37.1042 39.2446 38.6782 41.1859 38.6782Z" fill="black"/>
<path d="M138.814 141.087H138.729C136.788 141.087 135.214 142.661 135.214 144.602C135.214 146.544 136.788 148.118 138.729 148.118H138.814C140.755 148.118 142.329 146.544 142.329 144.602C142.329 142.661 140.755 141.087 138.814 141.087Z" fill="black"/>
</g>
<defs>
<clipPath id="clip0">
<rect width="180" height="180" fill="white"/>
</clipPath>
</defs>
</svg>
