<svg width="24" height="24" viewBox="0 0 24 24" fill="none" xmlns="http://www.w3.org/2000/svg">
<g clip-path="url(#clip0)">
<path d="M19.7803 23.5298H4.21973C2.14894 23.5298 0.470202 21.8511 0.470202 19.7802V4.21975C0.470202 2.14895 2.14889 0.470215 4.21973 0.470215H19.7802C21.851 0.470215 23.5297 2.1489 23.5297 4.21975V19.7802C23.5297 21.851 21.8511 23.5298 19.7803 23.5298Z" fill="#EDF2FA"/>
<path d="M19.4053 21.28H4.59469C3.55931 21.28 2.71992 20.4407 2.71992 19.4053V4.59471C2.71992 3.55933 3.55931 2.71994 4.59469 2.71994H19.4053C20.4407 2.71994 21.2801 3.55933 21.2801 4.59471V19.4053C21.2801 20.4407 20.4407 21.28 19.4053 21.28Z" fill="#898998"/>
<path d="M18.5029 3.16974H5.49727V21.0493H18.5029V3.16974Z" fill="#A0E557"/>
<path d="M8.6723 3.0011V6.82877H15.3277V3.0011" fill="#D8FB93"/>
<path d="M8.6723 21.0493V17.1712H15.3277V21.0493" fill="#D8FB93"/>
<path d="M11.9999 14.812C13.553 14.812 14.812 13.553 14.812 11.9999C14.812 10.4468 13.553 9.18777 11.9999 9.18777C10.4468 9.18777 9.18773 10.4468 9.18773 11.9999C9.18773 13.553 10.4468 14.812 11.9999 14.812Z" fill="#D8FB93"/>
<path d="M15.3277 16.7025H8.6723C8.4135 16.7025 8.20359 16.9124 8.20359 17.1712V19.6397C8.20359 19.8985 8.41345 20.1084 8.6723 20.1084C8.93109 20.1084 9.141 19.8985 9.141 19.6397V17.64H14.859V19.6397C14.859 19.8985 15.0689 20.1084 15.3277 20.1084C15.5865 20.1084 15.7964 19.8985 15.7964 19.6397V17.1712C15.7964 16.9124 15.5865 16.7025 15.3277 16.7025Z" fill="black"/>
<path d="M8.6723 7.29747H15.3277C15.5865 7.29747 15.7964 7.08761 15.7964 6.82876V4.36033C15.7964 4.10154 15.5865 3.89163 15.3277 3.89163C15.0689 3.89163 14.859 4.10149 14.859 4.36033V6.36011H9.141V4.36038C9.141 4.10158 8.93114 3.89168 8.6723 3.89168C8.4135 3.89168 8.20359 4.10154 8.20359 4.36038V6.82881C8.20359 7.08765 8.4135 7.29747 8.6723 7.29747Z" fill="black"/>
<path d="M23.9984 16.7403V7.25854C24.0003 7.23346 24.0006 7.20815 23.9984 7.18269V4.21916C23.9984 1.89323 22.1061 0.000976562 19.7802 0.000976562H4.2197C1.89376 0.000976562 0.00151052 1.89327 0.00151052 4.21916V7.18269C-0.000692603 7.20815 -0.000411353 7.23346 0.00151052 7.25854V16.7404C-0.000411353 16.7654 -0.000692603 16.7908 0.00151052 16.8162V19.7797C0.00151052 22.1057 1.89381 23.9979 4.2197 23.9979H19.7802C22.1061 23.9979 23.9984 22.1056 23.9984 19.7797V16.8162C24.0006 16.7907 24.0003 16.7654 23.9984 16.7403ZM5.96588 20.8108L5.96912 12.4681H8.75312C8.9813 14.0558 10.3501 15.2802 11.9999 15.2802C13.6497 15.2802 15.0186 14.0558 15.2467 12.4681H18.0377L18.0386 14.6311C18.033 14.673 18.0331 14.7148 18.0386 14.7556L18.0397 17.5236C18.0398 17.7824 18.2496 17.9921 18.5084 17.9921C18.5085 17.9921 18.5085 17.9921 18.5086 17.9921C18.7674 17.992 18.9772 17.7821 18.9771 17.5232L18.9763 15.3965L20.8112 16.1566V19.4047C20.8112 20.1801 20.1805 20.8108 19.4052 20.8108H5.96588V20.8108ZM3.18859 16.1565L5.03059 15.3936L5.02848 20.8108H4.59465C3.81934 20.8108 3.18859 20.18 3.18859 19.4047C3.18859 19.4047 3.18859 16.1565 3.18859 16.1565ZM0.938869 7.9251L2.25118 8.46866V15.5302L0.938869 16.0738V7.9251ZM3.18859 8.85693L5.03284 9.62085L5.03195 11.9442C5.02979 11.9623 5.02843 11.9807 5.02843 11.9994C5.02843 12.018 5.02984 12.0364 5.03195 12.0544L5.03101 14.3788L3.18863 15.1419V8.85693H3.18859ZM18.0341 3.18805L18.0365 9.25752C18.0332 9.28898 18.0333 9.32094 18.0366 9.35301L18.0374 11.5308H15.2468C15.0186 9.94302 13.6498 8.71865 12 8.71865C10.3501 8.71865 8.9813 9.94307 8.75316 11.5308H5.96949L5.97146 6.44849C5.97155 6.18969 5.76179 5.9797 5.50295 5.9796C5.5029 5.9796 5.5028 5.9796 5.50276 5.9796C5.24401 5.9796 5.03415 6.18932 5.03405 6.44812L5.03321 8.60638L3.18859 7.84232V4.59412C3.18859 3.8188 3.81934 3.18805 4.59465 3.18805H18.0341ZM20.8113 7.84227L18.9737 8.60343L18.9715 3.18805H19.4053C20.1806 3.18805 20.8113 3.8188 20.8113 4.59412V7.84227ZM9.70365 11.5307C9.92138 10.4624 10.8682 9.65596 12 9.65596C13.1317 9.65596 14.0785 10.4624 14.2963 11.5307H9.70365ZM14.2963 12.4681C14.0785 13.5365 13.1317 14.3429 12 14.3429C10.8682 14.3429 9.92143 13.5365 9.70365 12.4681H14.2963ZM18.976 14.3817L18.975 12.0863C18.9803 12.0581 18.9834 12.0291 18.9834 11.9994C18.9834 11.9695 18.9803 11.9403 18.975 11.912L18.9741 9.6179L20.8113 8.85688V15.1418L18.976 14.3817ZM21.7487 8.46866L23.061 7.92505V16.0738L21.7487 15.5302V8.46866ZM23.061 4.21916V6.9104L21.7487 7.45396V4.59412C21.7487 3.30196 20.6975 2.25065 19.4053 2.25065H12.4687V0.938336H19.7802C21.5893 0.938336 23.061 2.41012 23.061 4.21916ZM4.2197 0.938336H11.5313V2.25065H4.59465C3.30249 2.25065 2.25118 3.30191 2.25118 4.59412V7.45401L0.938869 6.91044V4.21921C0.938869 2.41012 2.41065 0.938336 4.2197 0.938336ZM0.938869 19.7796V17.0884L2.25118 16.5449V19.4047C2.25118 20.6969 3.30245 21.7482 4.59465 21.7482H11.5313V23.0605H4.2197C2.41065 23.0605 0.938869 21.5887 0.938869 19.7796ZM19.7802 23.0605H12.4687V21.7482H19.4053C20.6974 21.7482 21.7487 20.6969 21.7487 19.4047V16.5448L23.061 17.0884V19.7796C23.061 21.5887 21.5893 23.0605 19.7802 23.0605Z" fill="#070303"/>
<path d="M5.49145 5.15707H5.5028C5.76159 5.15707 5.9715 4.94721 5.9715 4.68837C5.9715 4.42952 5.76164 4.21967 5.5028 4.21967H5.49145C5.23266 4.21967 5.02275 4.42952 5.02275 4.68837C5.02275 4.94721 5.23261 5.15707 5.49145 5.15707Z" fill="black"/>
<path d="M18.5085 18.8116H18.4972C18.2384 18.8116 18.0285 19.0214 18.0285 19.2803C18.0285 19.5391 18.2384 19.749 18.4972 19.749H18.5085C18.7673 19.749 18.9772 19.5391 18.9772 19.2803C18.9772 19.0214 18.7674 18.8116 18.5085 18.8116Z" fill="black"/>
</g>
<defs>
<clipPath id="clip0">
<rect width="24" height="24" fill="white"/>
</clipPath>
</defs>
</svg>
