<svg width="256" height="256" viewBox="0 0 256 256" fill="none" xmlns="http://www.w3.org/2000/svg">
<g clip-path="url(#clip0)">
<path d="M210.989 250.984H45.0105C22.922 250.984 5.01549 233.078 5.01549 210.989V45.0106C5.01549 22.9221 22.9215 5.01562 45.0105 5.01562H210.989C233.077 5.01562 250.984 22.9216 250.984 45.0106V210.989C250.984 233.078 233.078 250.984 210.989 250.984Z" fill="#EDF2FA"/>
<path d="M206.99 226.987H49.01C37.966 226.987 29.0125 218.034 29.0125 206.99V49.0102C29.0125 37.9662 37.966 29.0127 49.01 29.0127H206.99C218.034 29.0127 226.988 37.9662 226.988 49.0102V206.99C226.987 218.034 218.034 226.987 206.99 226.987Z" fill="#898998"/>
<path d="M197.365 33.8105H58.6375V224.526H197.365V33.8105Z" fill="#A0E557"/>
<path d="M92.5045 32.0117V72.8402H163.495V32.0117" fill="#D8FB93"/>
<path d="M92.5045 224.526V183.16H163.495V224.526" fill="#D8FB93"/>
<path d="M127.998 157.995C144.565 157.995 157.995 144.565 157.995 127.999C157.995 111.433 144.565 98.0029 127.998 98.0029C111.432 98.0029 98.0025 111.433 98.0025 127.999C98.0025 144.565 111.432 157.995 127.998 157.995Z" fill="#D8FB93"/>
<path d="M163.496 178.161H92.5045C89.744 178.161 87.505 180.399 87.505 183.16V209.49C87.505 212.251 89.7435 214.49 92.5045 214.49C95.265 214.49 97.504 212.251 97.504 209.49V188.16H158.496V209.49C158.496 212.251 160.735 214.49 163.496 214.49C166.256 214.49 168.495 212.251 168.495 209.49V183.16C168.495 180.399 166.257 178.161 163.496 178.161Z" fill="black"/>
<path d="M92.5045 77.8396H163.496C166.256 77.8396 168.495 75.6011 168.495 72.8401V46.5102C168.495 43.7497 166.257 41.5107 163.496 41.5107C160.735 41.5107 158.496 43.7492 158.496 46.5102V67.8412H97.504V46.5107C97.504 43.7502 95.2655 41.5112 92.5045 41.5112C89.744 41.5112 87.505 43.7497 87.505 46.5107V72.8406C87.505 75.6016 89.744 77.8396 92.5045 77.8396Z" fill="black"/>
<path d="M255.983 178.563V77.4244C256.004 77.1569 256.007 76.8869 255.983 76.6154V45.0044C255.983 20.1944 235.799 0.010437 210.989 0.010437H45.0105C20.2005 0.010437 0.016481 20.1949 0.016481 45.0044V76.6154C-0.00701901 76.8869 -0.00401901 77.1569 0.016481 77.4244V178.564C-0.00401901 178.831 -0.00701901 179.101 0.016481 179.373V210.984C0.016481 235.794 20.201 255.978 45.0105 255.978H210.989C235.799 255.978 255.983 235.793 255.983 210.984V179.373C256.007 179.101 256.004 178.831 255.983 178.563ZM63.6364 221.981L63.6709 132.993H93.3669C95.8009 149.929 110.401 162.989 127.999 162.989C145.597 162.989 160.198 149.928 162.632 132.993H192.403L192.412 156.065C192.352 156.512 192.353 156.957 192.412 157.393L192.424 186.918C192.425 189.678 194.663 191.916 197.423 191.916C197.424 191.916 197.425 191.916 197.425 191.916C200.186 191.915 202.424 189.676 202.423 186.914L202.414 164.229L221.987 172.337V206.984C221.987 215.254 215.259 221.982 206.989 221.982H63.6364V221.981ZM34.012 172.336L53.6599 164.198L53.6374 221.981H49.01C40.74 221.981 34.012 215.253 34.012 206.983C34.012 206.983 34.012 172.336 34.012 172.336ZM10.015 84.5344L24.013 90.3324V165.655L10.015 171.453V84.5344ZM34.012 94.4739L53.6839 102.622L53.6744 127.404C53.6514 127.598 53.6369 127.794 53.6369 127.994C53.6369 128.192 53.6519 128.388 53.6744 128.58L53.6645 153.374L34.0125 161.514V94.4739H34.012ZM192.364 34.0059L192.39 98.7469C192.355 99.0824 192.356 99.4234 192.39 99.7654L192.399 122.995H162.632C160.198 106.059 145.598 92.9989 128 92.9989C110.401 92.9989 95.8009 106.059 93.3674 122.995H63.6749L63.6959 68.7839C63.6969 66.0234 61.4594 63.7834 58.6984 63.7824C58.6979 63.7824 58.6969 63.7824 58.6964 63.7824C55.9364 63.7824 53.6979 66.0194 53.6969 68.7799L53.6879 91.8014L34.012 83.6514V49.0039C34.012 40.7339 40.74 34.0059 49.01 34.0059H192.364ZM221.988 83.6509L202.386 91.7699L202.363 34.0059H206.99C215.26 34.0059 221.988 40.7339 221.988 49.0039V83.6509ZM103.506 122.994C105.828 111.598 115.928 102.997 128 102.997C140.072 102.997 150.171 111.598 152.494 122.994H103.506ZM152.494 132.993C150.171 144.389 140.072 152.99 128 152.99C115.928 152.99 105.829 144.389 103.506 132.993H152.494ZM202.411 153.404L202.401 128.921C202.457 128.62 202.49 128.311 202.49 127.993C202.49 127.674 202.457 127.363 202.4 127.061L202.391 102.591L221.988 94.4734V161.513L202.411 153.404ZM231.986 90.3324L245.984 84.5339V171.453L231.986 165.655V90.3324ZM245.985 45.0044V73.7109L231.987 79.5089V49.0039C231.987 35.2209 220.773 24.0069 206.99 24.0069H132.999V10.0089H210.989C230.286 10.0089 245.985 25.7079 245.985 45.0044ZM45.0105 10.0089H123V24.0069H49.01C35.227 24.0069 24.013 35.2204 24.013 49.0039V79.5094L10.015 73.7114V45.0049C10.015 25.7079 25.714 10.0089 45.0105 10.0089ZM10.015 210.983V182.276L24.013 176.478V206.984C24.013 220.767 35.2265 231.981 49.01 231.981H123V245.979H45.0105C25.714 245.978 10.015 230.279 10.015 210.983ZM210.989 245.978H132.999V231.98H206.99C220.773 231.98 231.987 220.767 231.987 206.983V176.478L245.985 182.276V210.982C245.985 230.279 230.286 245.978 210.989 245.978Z" fill="#070303"/>
<path d="M58.5755 55.0088H58.6965C61.457 55.0088 63.696 52.7703 63.696 50.0093C63.696 47.2483 61.4575 45.0098 58.6965 45.0098H58.5755C55.815 45.0098 53.576 47.2483 53.576 50.0093C53.576 52.7703 55.8145 55.0088 58.5755 55.0088Z" fill="black"/>
<path d="M197.424 200.657H197.303C194.543 200.657 192.304 202.895 192.304 205.656C192.304 208.417 194.542 210.656 197.303 210.656H197.424C200.185 210.656 202.424 208.417 202.424 205.656C202.424 202.895 200.185 200.657 197.424 200.657Z" fill="black"/>
</g>
<defs>
<clipPath id="clip0">
<rect width="256" height="256" fill="white"/>
</clipPath>
</defs>
</svg>
