<svg width="512" height="512" viewBox="0 0 512 512" fill="none" xmlns="http://www.w3.org/2000/svg">
<g clip-path="url(#clip0)">
<path d="M421.979 501.968H90.021C45.844 501.968 10.031 466.156 10.031 421.978V90.021C10.031 45.844 45.843 10.031 90.021 10.031H421.978C466.155 10.031 501.968 45.843 501.968 90.021V421.978C501.968 466.155 466.156 501.968 421.979 501.968Z" fill="#EDF2FA"/>
<path d="M413.98 453.974H98.02C75.932 453.974 58.025 436.067 58.025 413.979V98.02C58.025 75.932 75.932 58.025 98.02 58.025H413.98C436.068 58.025 453.975 75.932 453.975 98.02V413.979C453.974 436.067 436.068 453.974 413.98 453.974Z" fill="#898998"/>
<path d="M394.729 67.621H117.275V449.052H394.729V67.621Z" fill="#A0E557"/>
<path d="M185.009 64.0229V145.68H326.991V64.0229" fill="#D8FB93"/>
<path d="M185.009 449.052V366.319H326.991V449.052" fill="#D8FB93"/>
<path d="M255.997 315.989C289.13 315.989 315.989 289.13 315.989 255.997C315.989 222.864 289.13 196.005 255.997 196.005C222.864 196.005 196.005 222.864 196.005 255.997C196.005 289.13 222.864 315.989 255.997 315.989Z" fill="#D8FB93"/>
<path d="M326.991 356.32H185.009C179.488 356.32 175.01 360.797 175.01 366.319V418.979C175.01 424.5 179.487 428.978 185.009 428.978C190.53 428.978 195.008 424.501 195.008 418.979V376.318H316.992V418.979C316.992 424.5 321.469 428.978 326.991 428.978C332.512 428.978 336.99 424.501 336.99 418.979V366.319C336.99 360.797 332.513 356.32 326.991 356.32Z" fill="black"/>
<path d="M185.009 155.679H326.991C332.512 155.679 336.99 151.202 336.99 145.68V93.02C336.99 87.499 332.513 83.021 326.991 83.021C321.47 83.021 316.992 87.498 316.992 93.02V135.682H195.008V93.021C195.008 87.5 190.531 83.022 185.009 83.022C179.488 83.022 175.01 87.499 175.01 93.021V145.681C175.01 151.203 179.488 155.679 185.009 155.679Z" fill="black"/>
<path d="M511.967 357.137V154.859C512.008 154.324 512.014 153.784 511.967 153.241V90.0193C511.967 40.3993 471.598 0.031311 421.979 0.031311H90.021C40.401 0.031311 0.0330001 40.4003 0.0330001 90.0193V153.241C-0.0139999 153.784 -0.00799988 154.324 0.0330001 154.859V357.138C-0.00799988 357.673 -0.0139999 358.213 0.0330001 358.756V421.978C0.0330001 471.598 40.402 511.966 90.021 511.966H421.978C471.598 511.966 511.966 471.597 511.966 421.978V358.756C512.014 358.212 512.008 357.672 511.967 357.137ZM127.273 443.973L127.342 265.996H186.734C191.602 299.868 220.803 325.988 255.999 325.988C291.195 325.988 320.397 299.867 325.264 265.996H384.806L384.824 312.141C384.705 313.034 384.707 313.925 384.825 314.797L384.848 373.847C384.85 379.367 389.326 383.842 394.847 383.842C394.848 383.842 394.85 383.842 394.851 383.842C400.372 383.84 404.848 379.362 404.846 373.839L404.828 328.469L443.974 344.684V413.978C443.974 430.518 430.518 443.974 413.978 443.974H127.273V443.973ZM68.024 344.683L107.32 328.406L107.275 443.973H98.02C81.48 443.973 68.024 430.517 68.024 413.977C68.024 413.977 68.024 344.683 68.024 344.683ZM20.03 169.079L48.026 180.675V331.321L20.03 342.917V169.079ZM68.024 188.958L107.368 205.255L107.349 254.819C107.303 255.206 107.274 255.598 107.274 255.998C107.274 256.395 107.304 256.786 107.349 257.171L107.329 306.758L68.025 323.038V188.958H68.024ZM384.729 68.0223L384.78 197.504C384.71 198.175 384.712 198.857 384.781 199.541L384.799 246H325.265C320.397 212.128 291.197 186.008 256 186.008C220.803 186.008 191.602 212.129 186.735 246H127.35L127.392 137.578C127.394 132.057 122.919 127.577 117.397 127.575C117.396 127.575 117.394 127.575 117.393 127.575C111.873 127.575 107.396 132.049 107.394 137.57L107.376 183.613L68.024 167.313V98.0183C68.024 81.4783 81.48 68.0223 98.02 68.0223H384.729ZM443.976 167.312L404.773 183.55L404.727 68.0223H413.98C430.52 68.0223 443.976 81.4783 443.976 98.0183V167.312ZM207.012 245.999C211.657 223.207 231.856 206.004 256 206.004C280.144 206.004 300.342 223.207 304.988 245.999H207.012ZM304.988 265.996C300.343 288.788 280.144 305.991 256 305.991C231.856 305.991 211.658 288.788 207.012 265.996H304.988ZM404.822 306.819L404.802 257.852C404.915 257.25 404.981 256.632 404.981 255.997C404.981 255.359 404.915 254.737 404.801 254.133L404.782 205.192L443.976 188.957V323.036L404.822 306.819ZM463.973 180.675L491.969 169.078V342.917L463.973 331.321V180.675ZM491.97 90.0193V147.432L463.974 159.028V98.0183C463.974 70.4523 441.547 48.0243 413.98 48.0243H265.999V20.0283H421.979C460.572 20.0283 491.97 51.4263 491.97 90.0193ZM90.021 20.0283H246.001V48.0243H98.02C70.454 48.0243 48.026 70.4513 48.026 98.0183V159.029L20.03 147.433V90.0203C20.03 51.4263 51.428 20.0283 90.021 20.0283ZM20.03 421.976V364.563L48.026 352.967V413.978C48.026 441.544 70.453 463.972 98.02 463.972H246.001V491.968H90.021C51.428 491.967 20.03 460.569 20.03 421.976ZM421.979 491.967H265.999V463.971H413.98C441.546 463.971 463.974 441.544 463.974 413.977V352.966L491.97 364.562V421.975C491.97 460.569 460.572 491.967 421.979 491.967Z" fill="#070303"/>
<path d="M117.151 110.018H117.393C122.914 110.018 127.392 105.541 127.392 100.019C127.392 94.497 122.915 90.02 117.393 90.02H117.151C111.63 90.02 107.152 94.497 107.152 100.019C107.152 105.541 111.629 110.018 117.151 110.018Z" fill="black"/>
<path d="M394.849 401.314H394.607C389.086 401.314 384.608 405.791 384.608 411.313C384.608 416.835 389.085 421.312 394.607 421.312H394.849C400.37 421.312 404.848 416.835 404.848 411.313C404.848 405.791 400.371 401.314 394.849 401.314Z" fill="black"/>
</g>
<defs>
<clipPath id="clip0">
<rect width="512" height="512" fill="white"/>
</clipPath>
</defs>
</svg>
