<svg width="16" height="16" viewBox="0 0 16 16" fill="none" xmlns="http://www.w3.org/2000/svg">
<g clip-path="url(#clip0)">
<path d="M13.1868 15.6865H2.81315C1.43262 15.6865 0.313468 14.5674 0.313468 13.1868V2.81316C0.313468 1.43263 1.43259 0.313477 2.81315 0.313477H13.1868C14.5673 0.313477 15.6865 1.4326 15.6865 2.81316V13.1868C15.6865 14.5673 14.5674 15.6865 13.1868 15.6865Z" fill="#EDF2FA"/>
<path d="M12.9369 14.1867H3.06312C2.37287 14.1867 1.81328 13.6271 1.81328 12.9369V3.06314C1.81328 2.37289 2.37287 1.81329 3.06312 1.81329H12.9369C13.6271 1.81329 14.1867 2.37289 14.1867 3.06314V12.9369C14.1867 13.6271 13.6271 14.1867 12.9369 14.1867Z" fill="#898998"/>
<path d="M12.3353 2.11316H3.66484V14.0329H12.3353V2.11316Z" fill="#A0E557"/>
<path d="M5.78153 2.00073V4.55251H10.2185V2.00073" fill="#D8FB93"/>
<path d="M5.78153 14.0329V11.4475H10.2185V14.0329" fill="#D8FB93"/>
<path d="M7.99991 9.8747C9.0353 9.8747 9.87466 9.03534 9.87466 7.99994C9.87466 6.96454 9.0353 6.12518 7.99991 6.12518C6.96451 6.12518 6.12516 6.96454 6.12516 7.99994C6.12516 9.03534 6.96451 9.8747 7.99991 9.8747Z" fill="#D8FB93"/>
<path d="M10.2185 11.135H5.78153C5.609 11.135 5.46906 11.2749 5.46906 11.4475V13.0931C5.46906 13.2657 5.60897 13.4056 5.78153 13.4056C5.95406 13.4056 6.094 13.2657 6.094 13.0931V11.76H9.906V13.0931C9.906 13.2657 10.0459 13.4056 10.2185 13.4056C10.391 13.4056 10.5309 13.2657 10.5309 13.0931V11.4475C10.5309 11.2749 10.391 11.135 10.2185 11.135Z" fill="black"/>
<path d="M5.78153 4.86498H10.2185C10.391 4.86498 10.5309 4.72507 10.5309 4.55251V2.90689C10.5309 2.73436 10.391 2.59442 10.2185 2.59442C10.0459 2.59442 9.906 2.73433 9.906 2.90689V4.24007H6.094V2.90692C6.094 2.73439 5.95409 2.59445 5.78153 2.59445C5.609 2.59445 5.46906 2.73436 5.46906 2.90692V4.55254C5.46906 4.7251 5.609 4.86498 5.78153 4.86498Z" fill="black"/>
<path d="M15.9989 11.1605V4.83935C16.0002 4.82263 16.0004 4.80576 15.9989 4.78879V2.8131C15.9989 1.26248 14.7374 0.000976562 13.1868 0.000976562H2.81312C1.26249 0.000976562 0.000994298 1.26251 0.000994298 2.8131V4.78879C-0.000474451 4.80576 -0.000286951 4.82263 0.000994298 4.83935V11.1606C-0.000286951 11.1773 -0.000474451 11.1942 0.000994298 11.2111V13.1868C0.000994298 14.7374 1.26252 15.9989 2.81312 15.9989H13.1868C14.7374 15.9989 15.9989 14.7374 15.9989 13.1868V11.2111C16.0004 11.1941 16.0002 11.1773 15.9989 11.1605ZM3.97724 13.8742L3.9794 8.31238H5.8354C5.98752 9.37088 6.90005 10.1871 7.99993 10.1871C9.0998 10.1871 10.0124 9.37085 10.1645 8.31238H12.0251L12.0257 9.75441C12.022 9.78232 12.022 9.81016 12.0257 9.83741L12.0265 11.6827C12.0265 11.8552 12.1664 11.9951 12.3389 11.9951C12.339 11.9951 12.339 11.9951 12.339 11.9951C12.5116 11.995 12.6515 11.8551 12.6514 11.6825L12.6508 10.2647L13.8741 10.7714V12.9368C13.8741 13.4537 13.4536 13.8742 12.9368 13.8742H3.97724V13.8742ZM2.12571 10.7714L3.35371 10.2627L3.3523 13.8742H3.06309C2.54621 13.8742 2.12571 13.4537 2.12571 12.9368C2.12571 12.9368 2.12571 10.7714 2.12571 10.7714ZM0.6259 5.28373L1.50077 5.6461V10.3538L0.6259 10.7162V5.28373ZM2.12571 5.90495L3.35521 6.41423L3.35462 7.9631C3.35318 7.9752 3.35227 7.98745 3.35227 7.99995C3.35227 8.01235 3.35321 8.02457 3.35462 8.0366L3.35399 9.5862L2.12574 10.0949V5.90495H2.12571ZM12.0227 2.1257L12.0243 6.17201C12.0221 6.19298 12.0222 6.21429 12.0244 6.23566L12.0249 7.68751H10.1645C10.0124 6.62901 9.09986 5.81276 7.99996 5.81276C6.90005 5.81276 5.98752 6.62904 5.83543 7.68751H3.97965L3.98096 4.29932C3.98102 4.12679 3.84118 3.98679 3.66862 3.98673C3.66859 3.98673 3.66852 3.98673 3.66849 3.98673C3.49599 3.98673 3.35609 4.12654 3.35602 4.29907L3.35546 5.73791L2.12571 5.22854V3.06307C2.12571 2.5462 2.54621 2.1257 3.06309 2.1257H12.0227ZM13.8742 5.22851L12.6491 5.73595L12.6477 2.1257H12.9368C13.4537 2.1257 13.8742 2.5462 13.8742 3.06307V5.22851ZM6.46908 7.68748C6.61424 6.97523 7.24546 6.43763 7.99996 6.43763C8.75446 6.43763 9.38564 6.97523 9.53083 7.68748H6.46908ZM9.53083 8.31238C9.38568 9.02463 8.75446 9.56223 7.99996 9.56223C7.24546 9.56223 6.61427 9.02463 6.46908 8.31238H9.53083ZM12.6506 9.5881L12.65 8.05788C12.6535 8.03907 12.6556 8.01976 12.6556 7.99991C12.6556 7.97998 12.6535 7.96054 12.65 7.94166L12.6494 6.41226L13.8742 5.90491V10.0949L12.6506 9.5881ZM14.4991 5.6461L15.374 5.2837V10.7162L14.4991 10.3538V5.6461ZM15.374 2.8131V4.60726L14.4991 4.96963V3.06307C14.4991 2.20163 13.7983 1.50076 12.9368 1.50076H8.31243V0.625883H13.1868C14.3928 0.625883 15.374 1.60707 15.374 2.8131ZM2.81312 0.625883H7.68749V1.50076H3.06309C2.20165 1.50076 1.50077 2.2016 1.50077 3.06307V4.96966L0.6259 4.60729V2.81313C0.6259 1.60707 1.60709 0.625883 2.81312 0.625883ZM0.6259 13.1868V11.3926L1.50077 11.0302V12.9368C1.50077 13.7983 2.20162 14.4991 3.06309 14.4991H7.68749V15.374H2.81312C1.60709 15.374 0.6259 14.3928 0.6259 13.1868ZM13.1868 15.374H8.31243V14.4991H12.9368C13.7983 14.4991 14.4991 13.7983 14.4991 12.9368V11.0302L15.374 11.3926V13.1867C15.374 14.3928 14.3928 15.374 13.1868 15.374Z" fill="#070303"/>
<path d="M3.66097 3.43805H3.66853C3.84106 3.43805 3.981 3.29814 3.981 3.12558C3.981 2.95302 3.84109 2.81311 3.66853 2.81311H3.66097C3.48844 2.81311 3.3485 2.95302 3.3485 3.12558C3.3485 3.29814 3.48841 3.43805 3.66097 3.43805Z" fill="black"/>
<path d="M12.339 12.541H12.3315C12.1589 12.541 12.019 12.681 12.019 12.8535C12.019 13.0261 12.1589 13.166 12.3315 13.166H12.339C12.5116 13.166 12.6515 13.0261 12.6515 12.8535C12.6515 12.681 12.5116 12.541 12.339 12.541Z" fill="black"/>
</g>
<defs>
<clipPath id="clip0">
<rect width="16" height="16" fill="white"/>
</clipPath>
</defs>
</svg>
