<svg width="128" height="128" viewBox="0 0 128 128" fill="none" xmlns="http://www.w3.org/2000/svg">
<g clip-path="url(#clip0)">
<path d="M105.495 125.492H22.5052C11.461 125.492 2.50774 116.539 2.50774 105.495V22.5053C2.50774 11.4611 11.4607 2.50781 22.5052 2.50781H105.494C116.539 2.50781 125.492 11.4608 125.492 22.5053V105.495C125.492 116.539 116.539 125.492 105.495 125.492Z" fill="#EDF2FA"/>
<path d="M103.495 113.494H24.505C18.983 113.494 14.5062 109.017 14.5062 103.495V24.5051C14.5062 18.9831 18.983 14.5063 24.505 14.5063H103.495C109.017 14.5063 113.494 18.9831 113.494 24.5051V103.495C113.494 109.017 109.017 113.494 103.495 113.494Z" fill="#898998"/>
<path d="M98.6823 16.9053H29.3187V112.263H98.6823V16.9053Z" fill="#A0E557"/>
<path d="M46.2522 16.0059V36.4201H81.7477V16.0059" fill="#D8FB93"/>
<path d="M46.2522 112.263V91.5799H81.7477V112.263" fill="#D8FB93"/>
<path d="M63.9992 78.9976C72.2824 78.9976 78.9973 72.2827 78.9973 63.9995C78.9973 55.7163 72.2824 49.0015 63.9992 49.0015C55.7161 49.0015 49.0013 55.7163 49.0013 63.9995C49.0013 72.2827 55.7161 78.9976 63.9992 78.9976Z" fill="#D8FB93"/>
<path d="M81.7478 89.0803H46.2522C44.872 89.0803 43.7525 90.1995 43.7525 91.58V104.745C43.7525 106.125 44.8717 107.245 46.2522 107.245C47.6325 107.245 48.752 106.126 48.752 104.745V94.0798H79.248V104.745C79.248 106.125 80.3673 107.245 81.7478 107.245C83.128 107.245 84.2475 106.126 84.2475 104.745V91.58C84.2475 90.1995 83.1283 89.0803 81.7478 89.0803Z" fill="black"/>
<path d="M46.2522 38.9198H81.7478C83.128 38.9198 84.2475 37.8006 84.2475 36.4201V23.2551C84.2475 21.8749 83.1283 20.7554 81.7478 20.7554C80.3675 20.7554 79.248 21.8746 79.248 23.2551V33.9206H48.752V23.2554C48.752 21.8751 47.6327 20.7556 46.2522 20.7556C44.872 20.7556 43.7525 21.8749 43.7525 23.2554V36.4203C43.7525 37.8008 44.872 38.9198 46.2522 38.9198Z" fill="black"/>
<path d="M127.992 89.2817V38.7122C128.002 38.5785 128.003 38.4435 127.992 38.3077V22.5022C127.992 10.0972 117.899 0.00521851 105.495 0.00521851H22.5052C10.1002 0.00521851 0.00822141 10.0975 0.00822141 22.5022V38.3077C-0.00352858 38.4435 -0.00202858 38.5785 0.00822141 38.7122V89.282C-0.00202858 89.4157 -0.00352858 89.5507 0.00822141 89.6865V105.492C0.00822141 117.897 10.1005 127.989 22.5052 127.989H105.494C117.899 127.989 127.991 117.897 127.991 105.492V89.6865C128.003 89.5505 128.002 89.4155 127.992 89.2817ZM31.8182 110.991L31.8355 66.4965H46.6834C47.9004 74.9645 55.2007 81.4945 63.9997 81.4945C72.7987 81.4945 80.0992 74.9642 81.3159 66.4965H96.2014L96.2059 78.0327C96.1762 78.256 96.1767 78.4787 96.2062 78.6967L96.2119 93.4592C96.2124 94.8392 97.3314 95.958 98.7117 95.958C98.7119 95.958 98.7124 95.958 98.7127 95.958C100.093 95.9575 101.212 94.838 101.211 93.4572L101.207 82.1147L110.993 86.1685V103.492C110.993 107.627 107.629 110.991 103.494 110.991H31.8182V110.991ZM17.006 86.1682L26.83 82.099L26.8187 110.991H24.505C20.37 110.991 17.006 107.627 17.006 103.492C17.006 103.492 17.006 86.1682 17.006 86.1682ZM5.00747 42.2672L12.0065 45.1662V82.8277L5.00747 85.7267V42.2672ZM17.006 47.237L26.842 51.3112L26.8372 63.7022C26.8257 63.799 26.8185 63.897 26.8185 63.997C26.8185 64.0962 26.826 64.194 26.8372 64.2902L26.8322 76.687L17.0062 80.757V47.237H17.006ZM96.1822 17.003L96.1949 49.3735C96.1774 49.5412 96.1779 49.7117 96.1952 49.8827L96.1997 61.4975H81.3162C80.0992 53.0295 72.7992 46.4995 63.9999 46.4995C55.2007 46.4995 47.9004 53.0297 46.6837 61.4975H31.8375L31.848 34.392C31.8485 33.0117 30.7297 31.8917 29.3492 31.8912C29.349 31.8912 29.3485 31.8912 29.3482 31.8912C27.9682 31.8912 26.849 33.0097 26.8485 34.39L26.844 45.9007L17.006 41.8257V24.502C17.006 20.367 20.37 17.003 24.505 17.003H96.1822ZM110.994 41.8255L101.193 45.885L101.182 17.003H103.495C107.63 17.003 110.994 20.367 110.994 24.502V41.8255ZM51.7529 61.4972C52.9142 55.7992 57.9639 51.4985 63.9999 51.4985C70.0359 51.4985 75.0854 55.7992 76.2469 61.4972H51.7529ZM76.2469 66.4965C75.0857 72.1945 70.0359 76.4952 63.9999 76.4952C57.9639 76.4952 52.9144 72.1945 51.7529 66.4965H76.2469ZM101.205 76.7022L101.2 64.4605C101.229 64.31 101.245 64.1555 101.245 63.9967C101.245 63.8372 101.229 63.6817 101.2 63.5307L101.195 51.2955L110.994 47.2367V80.7565L101.205 76.7022ZM115.993 45.1662L122.992 42.267V85.7267L115.993 82.8277V45.1662ZM122.992 22.5022V36.8555L115.993 39.7545V24.502C115.993 17.6105 110.387 12.0035 103.495 12.0035H66.4997V5.00447H105.495C115.143 5.00447 122.992 12.854 122.992 22.5022ZM22.5052 5.00447H61.5002V12.0035H24.505C17.6135 12.0035 12.0065 17.6102 12.0065 24.502V39.7547L5.00747 36.8557V22.5025C5.00747 12.854 12.857 5.00447 22.5052 5.00447ZM5.00747 105.491V91.1382L12.0065 88.2392V103.492C12.0065 110.383 17.6132 115.99 24.505 115.99H61.5002V122.989H22.5052C12.857 122.989 5.00747 115.14 5.00747 105.491ZM105.495 122.989H66.4997V115.99H103.495C110.386 115.99 115.993 110.383 115.993 103.492V88.239L122.992 91.138V105.491C122.992 115.14 115.143 122.989 105.495 122.989Z" fill="#070303"/>
<path d="M29.2878 27.5044H29.3483C30.7285 27.5044 31.848 26.3851 31.848 25.0046C31.848 23.6241 30.7288 22.5049 29.3483 22.5049H29.2878C27.9075 22.5049 26.788 23.6241 26.788 25.0046C26.788 26.3851 27.9073 27.5044 29.2878 27.5044Z" fill="black"/>
<path d="M98.7122 100.328H98.6517C97.2715 100.328 96.152 101.448 96.152 102.828C96.152 104.209 97.2712 105.328 98.6517 105.328H98.7122C100.092 105.328 101.212 104.209 101.212 102.828C101.212 101.448 100.093 100.328 98.7122 100.328Z" fill="black"/>
</g>
<defs>
<clipPath id="clip0">
<rect width="128" height="128" fill="white"/>
</clipPath>
</defs>
</svg>
