<svg width="192" height="192" viewBox="0 0 192 192" fill="none" xmlns="http://www.w3.org/2000/svg">
<g clip-path="url(#clip0)">
<path d="M158.242 188.238H33.7579C17.1915 188.238 3.76163 174.808 3.76163 158.242V33.7579C3.76163 17.1915 17.1911 3.76163 33.7579 3.76163H158.242C174.808 3.76163 188.238 17.1911 188.238 33.7579V158.242C188.238 174.808 174.808 188.238 158.242 188.238Z" fill="#EDF2FA"/>
<path d="M155.243 170.24H36.7575C28.4745 170.24 21.7594 163.525 21.7594 155.242V36.7575C21.7594 28.4745 28.4745 21.7594 36.7575 21.7594H155.243C163.526 21.7594 170.241 28.4745 170.241 36.7575V155.242C170.24 163.525 163.526 170.24 155.243 170.24Z" fill="#898998"/>
<path d="M148.023 25.3579H43.9781V168.395H148.023V25.3579Z" fill="#A0E557"/>
<path d="M69.3784 24.0086V54.63H122.622V24.0086" fill="#D8FB93"/>
<path d="M69.3784 168.395V137.37H122.622V168.395" fill="#D8FB93"/>
<path d="M95.9989 118.496C108.424 118.496 118.496 108.424 118.496 95.9989C118.496 83.5741 108.424 73.5019 95.9989 73.5019C83.5741 73.5019 73.5019 83.5741 73.5019 95.9989C73.5019 108.424 83.5741 118.496 95.9989 118.496Z" fill="#D8FB93"/>
<path d="M122.622 133.62H69.3784C67.308 133.62 65.6287 135.299 65.6287 137.37V157.117C65.6287 159.187 67.3076 160.867 69.3784 160.867C71.4487 160.867 73.128 159.188 73.128 157.117V141.119H118.872V157.117C118.872 159.187 120.551 160.867 122.622 160.867C124.692 160.867 126.371 159.188 126.371 157.117V137.37C126.371 135.299 124.692 133.62 122.622 133.62Z" fill="black"/>
<path d="M69.3784 58.3796H122.622C124.692 58.3796 126.371 56.7008 126.371 54.63V34.8825C126.371 32.8121 124.692 31.1329 122.622 31.1329C120.551 31.1329 118.872 32.8117 118.872 34.8825V50.8808H73.128V34.8829C73.128 32.8125 71.4491 31.1332 69.3784 31.1332C67.308 31.1332 65.6287 32.8121 65.6287 34.8829V54.6304C65.6287 56.7011 67.308 58.3796 69.3784 58.3796Z" fill="black"/>
<path d="M191.988 133.926V58.0722C192.003 57.8716 192.005 57.6691 191.988 57.4655V33.7572C191.988 15.1498 176.849 0.0117493 158.242 0.0117493H33.7578C15.1504 0.0117493 0.0123512 15.1501 0.0123512 33.7572V57.4655C-0.0052738 57.6691 -0.0030238 57.8716 0.0123512 58.0722V133.927C-0.0030238 134.127 -0.0052738 134.33 0.0123512 134.534V158.242C0.0123512 176.849 15.1507 191.987 33.7578 191.987H158.242C176.849 191.987 191.987 176.849 191.987 158.242V134.534C192.005 134.33 192.003 134.127 191.988 133.926ZM47.7273 166.49L47.7532 99.7486H70.0252C71.8507 112.451 82.8011 122.246 95.9996 122.246C109.198 122.246 120.149 112.45 121.974 99.7486H144.302L144.309 117.053C144.264 117.388 144.265 117.722 144.309 118.049L144.318 140.193C144.319 142.263 145.997 143.941 148.068 143.941C148.068 143.941 148.069 143.941 148.069 143.941C150.139 143.94 151.818 142.261 151.817 140.19L151.81 123.176L166.49 129.257V155.242C166.49 161.444 161.444 166.49 155.242 166.49H47.7273V166.49ZM25.509 129.256L40.245 123.152L40.2281 166.49H36.7575C30.555 166.49 25.509 161.444 25.509 155.241C25.509 155.241 25.509 129.256 25.509 129.256ZM7.51123 63.4047L18.0097 67.7532V124.245L7.51123 128.594V63.4047ZM25.509 70.8594L40.263 76.9707L40.2558 95.5572C40.2386 95.7024 40.2277 95.8494 40.2277 95.9994C40.2277 96.1482 40.239 96.2949 40.2558 96.4392L40.2483 115.034L25.5093 121.139V70.8594H25.509ZM144.273 25.5084L144.292 74.0641C144.266 74.3157 144.267 74.5715 144.293 74.828L144.3 92.2501H121.974C120.149 79.5481 109.199 69.7531 96 69.7531C82.8011 69.7531 71.8507 79.5485 70.0256 92.2501H47.7562L47.772 51.5919C47.7727 49.5215 46.0946 47.8415 44.0238 47.8407C44.0235 47.8407 44.0227 47.8407 44.0223 47.8407C41.9523 47.8407 40.2735 49.5185 40.2727 51.5889L40.266 68.855L25.509 62.7425V36.7569C25.509 30.5544 30.555 25.5084 36.7575 25.5084H144.273ZM166.491 62.7421L151.79 68.8314L151.773 25.5084H155.242C161.445 25.5084 166.491 30.5544 166.491 36.7569V62.7421ZM77.6295 92.2497C79.3713 83.7027 86.946 77.2516 96 77.2516C105.054 77.2516 112.628 83.7027 114.37 92.2497H77.6295ZM114.37 99.7486C112.629 108.296 105.054 114.747 96 114.747C86.946 114.747 79.3717 108.296 77.6295 99.7486H114.37ZM151.808 115.057L151.801 96.6946C151.843 96.4689 151.868 96.2371 151.868 95.999C151.868 95.7597 151.843 95.5265 151.8 95.3L151.793 76.9471L166.491 70.859V121.139L151.808 115.057ZM173.99 67.7532L184.488 63.4044V128.594L173.99 124.245V67.7532ZM184.489 33.7572V55.2871L173.99 59.6356V36.7569C173.99 26.4196 165.58 18.0091 155.242 18.0091H99.7496V7.51062H158.242C172.714 7.51062 184.489 19.2849 184.489 33.7572ZM33.7578 7.51062H92.2503V18.0091H36.7575C26.4202 18.0091 18.0097 26.4192 18.0097 36.7569V59.636L7.51123 55.2875V33.7576C7.51123 19.2849 19.2855 7.51062 33.7578 7.51062ZM7.51123 158.241V136.711L18.0097 132.363V155.242C18.0097 165.579 26.4198 173.99 36.7575 173.99H92.2503V184.488H33.7578C19.2855 184.488 7.51123 172.713 7.51123 158.241ZM158.242 184.488H99.7496V173.989H155.242C165.58 173.989 173.99 165.579 173.99 155.241V132.362L184.489 136.711V158.241C184.489 172.713 172.714 184.488 158.242 184.488Z" fill="#070303"/>
<path d="M43.9316 41.2568H44.0224C46.0928 41.2568 47.772 39.5779 47.772 37.5071C47.772 35.4364 46.0931 33.7575 44.0224 33.7575H43.9316C41.8613 33.7575 40.182 35.4364 40.182 37.5071C40.182 39.5779 41.8609 41.2568 43.9316 41.2568Z" fill="black"/>
<path d="M148.068 150.493H147.978C145.907 150.493 144.228 152.172 144.228 154.242C144.228 156.313 145.907 157.992 147.978 157.992H148.068C150.139 157.992 151.818 156.313 151.818 154.242C151.818 152.172 150.139 150.493 148.068 150.493Z" fill="black"/>
</g>
<defs>
<clipPath id="clip0">
<rect width="192" height="192" fill="white"/>
</clipPath>
</defs>
</svg>
